Coordinates
version=1
nRows=18
nColumns=32
inDegrees=yes

Units are S.I. units (second, meters, Newtons, ...)
If the header above contains a line with 'inDegrees', this indicates whether rotational values are in degrees (yes) or radians (no).

endheader
time	pelvis_tilt	pelvis_list	pelvis_rotation	pelvis_tx	pelvis_ty	pelvis_tz	hip_flexion_r	hip_adduction_r	hip_rotation_r	knee_angle_r	ankle_angle_r	subtalar_angle_r	mtp_angle_r	hip_flexion_l	hip_adduction_l	hip_rotation_l	knee_angle_l	ankle_angle_l	subtalar_angle_l	mtp_angle_l	lumbar_extension	lumbar_bending	lumbar_rotation	arm_flex_r	arm_add_r	arm_rot_r	elbow_flex_r	arm_flex_l	arm_add_l	arm_rot_l	elbow_flex_l
      4.25000000	    -10.45720899	     -5.60632485	      3.35503949	      0.80260662	      0.83706461	      0.27062692	      1.19669181	      6.31835173	     -1.27531342	    -41.85105379	     -5.85912072	     -1.53669378	      0.00000000	     46.57806510	     -2.68250039	      0.66332327	    -39.67062524	     -6.65966399	    -29.99520572	      0.00000000	      2.66742944	     -5.46111858	     -1.32545984	      0.00000000	      0.00000000	      0.00000000	      0.00000000	      0.00000000	      0.00000000	      0.00000000	      0.00000000
      4.26000000	    -10.91185889	     -5.46370183	      2.37654230	      0.81319389	      0.83998993	      0.27001954	      2.83476241	      5.92271787	     -0.49380972	    -43.82512777	     -6.48699927	     -2.58053047	      0.00000000	     45.99169298	     -3.09259855	      0.15808616	    -39.42629608	     -6.14815971	    -30.00007015	      0.00000000	      3.33436132	     -5.51154206	      0.30282902	      0.00000000	      0.00000000	      0.00000000	      0.00000000	      0.00000000	      0.00000000	      0.00000000	      0.00000000
      4.27000000	    -10.85567955	     -5.57627951	      2.36247709	      0.82455755	      0.84282688	      0.26941599	      3.73620558	      6.01898346	     -0.23880436	    -45.46689649	     -6.44869425	     -3.01880418	      0.00000000	     44.95754174	     -3.15113311	      0.46273531	    -39.33875839	     -5.88046976	    -30.00007015	      0.00000000	      3.44010974	     -5.51145335	      0.21888236	      0.00000000	      0.00000000	      0.00000000	      0.00000000	      0.00000000	      0.00000000	      0.00000000	      0.00000000
      4.28000000	    -11.05085117	     -5.18877777	      2.39041066	      0.83657773	      0.84593136	      0.26936923	      5.11171565	      5.49679486	     -0.37837102	    -47.45286639	     -5.73404041	     -5.77816296	      0.00000000	     43.84662395	     -2.96341914	     -0.09196691	    -38.70161416	     -4.88853113	    -30.00007015	      0.00000000	      3.96941438	     -6.19537427	      0.50857244	      0.00000000	      0.00000000	      0.00000000	      0.00000000	      0.00000000	      0.00000000	      0.00000000	      0.00000000
      4.29000000	    -11.87518475	     -5.09288266	      1.62146740	      0.84657540	      0.84869331	      0.26915532	      7.42720632	      5.23168971	     -0.04591378	    -49.41399690	     -6.08705238	    -10.86062309	      0.00000000	     43.34680175	     -3.25599595	     -0.60048201	    -37.89153095	     -4.13837590	    -29.99988108	      0.00000000	      5.03429062	     -6.21768332	      1.18201977	      0.00000000	      0.00000000	      0.00000000	      0.00000000	      0.00000000	      0.00000000	      0.00000000	      0.00000000
      4.30000000	    -12.01163402	     -4.55659323	      1.82973364	      0.85752278	      0.85267566	      0.26686999	      8.94475769	      4.09590951	     -1.07378556	    -51.25442556	     -5.24681981	    -13.12404296	      0.00000000	     41.84320527	     -2.41688986	     -0.50469379	    -36.55605913	     -3.84182504	    -30.00007015	      0.00000000	      5.32825321	     -6.74396595	      1.23073430	      0.00000000	      0.00000000	      0.00000000	      0.00000000	      0.00000000	      0.00000000	      0.00000000	      0.00000000
      4.31000000	    -11.96049783	     -4.29962524	      2.43155491	      0.86902392	      0.85671257	      0.26643526	     10.11453866	      3.61216441	     -2.07742976	    -52.74771331	     -4.21974998	    -16.00974646	      0.00000000	     40.35998150	     -1.96828604	     -0.42078328	    -35.48246642	     -3.93379417	    -29.58277633	      0.00000000	      5.41829121	     -7.34773538	      0.43557104	      0.00000000	      0.00000000	      0.00000000	      0.00000000	      0.00000000	      0.00000000	      0.00000000	      0.00000000
      4.32000000	    -12.40314500	     -4.12329463	      1.91146642	      0.87831886	      0.86039804	      0.26542292	     12.43536075	      3.03202307	     -2.34614287	    -54.76543975	     -3.77755075	    -18.24082440	      0.00000000	     39.32413196	     -1.89018255	     -0.60552630	    -34.25731247	     -3.26378436	    -30.00007015	      0.00000000	      5.88375643	     -7.33577290	      0.95020159	      0.00000000	      0.00000000	      0.00000000	      0.00000000	      0.00000000	      0.00000000	      0.00000000	      0.00000000
      4.33000000	    -12.48105850	     -4.07393070	      2.34208651	      0.88939638	      0.86423305	      0.26480971	     13.99574506	      2.70632562	     -3.27867063	    -56.23448318	     -3.43464563	    -19.80224271	      0.00000000	     37.89625042	     -1.62579376	     -0.36579157	    -32.98161004	     -3.13112653	    -29.88864634	      0.00000000	      6.04495751	     -7.60563325	      0.30159087	      0.00000000	      0.00000000	      0.00000000	      0.00000000	      0.00000000	      0.00000000	      0.00000000	      0.00000000
      4.34000000	    -12.70159957	     -4.07619146	      2.52225290	      0.89990331	      0.86784262	      0.26411700	     15.82207694	      2.36536015	     -4.02485130	    -57.67323966	     -2.56965077	    -21.03638558	      0.00000000	     36.59095994	     -1.50795703	     -0.24285187	    -31.61156667	     -2.93536556	    -29.78077449	      0.00000000	      6.39777422	     -7.63115692	      0.04366532	      0.00000000	      0.00000000	      0.00000000	      0.00000000	      0.00000000	      0.00000000	      0.00000000	      0.00000000
      4.35000000	    -13.60789327	     -3.63996550	      1.97087778	      0.90823316	      0.87002348	      0.26309484	     19.02095127	      1.22101132	     -4.51344261	    -59.67862059	     -1.93307608	    -21.45554329	      0.00000000	     36.02400498	     -1.12182045	     -0.39319533	    -30.19273950	     -2.75964991	    -29.88832582	      0.00000000	      7.30069515	     -7.89130616	      0.45711830	      0.00000000	      0.00000000	      0.00000000	      0.00000000	      0.00000000	      0.00000000	      0.00000000	      0.00000000
      4.36000000	    -13.87728661	     -4.04262997	      1.98357677	      0.91775129	      0.87293433	      0.26330233	     21.17402092	      1.60775940	     -4.73593913	    -61.00519766	     -1.62379784	    -21.11909470	      0.00000000	     34.93265970	     -1.50192667	     -0.11141079	    -28.96447398	     -2.57623433	    -29.99278810	      0.00000000	      7.49497198	     -7.51359197	      0.20056567	      0.00000000	      0.00000000	      0.00000000	      0.00000000	      0.00000000	      0.00000000	      0.00000000	      0.00000000
      4.37000000	    -14.24064455	     -3.83628274	      2.43392750	      0.92748318	      0.87513507	      0.26194006	     23.45001927	      0.63551288	     -6.03491373	    -62.42435523	     -0.68994787	    -20.85579561	      0.00000000	     34.00451363	     -1.10436752	     -0.29763171	    -27.73784738	     -2.68001157	    -29.82559667	      0.00000000	      7.84532338	     -7.77396623	     -0.50181207	      0.00000000	      0.00000000	      0.00000000	      0.00000000	      0.00000000	      0.00000000	      0.00000000	      0.00000000
      4.38000000	    -14.96281761	     -4.07826480	      3.17161114	      0.93725450	      0.87653465	      0.26087713	     26.09554963	      0.14720690	     -7.42396833	    -63.69470997	      1.32980128	    -17.62936905	      0.00000000	     33.50748252	     -0.98244090	      0.42461879	    -26.60101676	     -2.54631635	    -29.63013887	      0.00000000	      8.62213447	     -7.67206270	     -1.22660871	      0.00000000	      0.00000000	      0.00000000	      0.00000000	      0.00000000	      0.00000000	      0.00000000	      0.00000000
      4.39000000	    -15.03265066	     -4.11915069	      3.87883156	      0.94777033	      0.87878612	      0.26023879	     27.93101256	     -0.49777783	     -8.47743532	    -64.55046366	      1.09501373	    -17.09178405	      0.00000000	     32.19217678	     -0.91454845	      0.25611912	    -25.27399250	     -2.51669122	    -29.33265527	      0.00000000	      8.66006131	     -7.85540492	     -2.30513029	      0.00000000	      0.00000000	      0.00000000	      0.00000000	      0.00000000	      0.00000000	      0.00000000	      0.00000000
      4.40000000	    -15.03291211	     -3.55892867	      4.37201886	      0.95662670	      0.88068579	      0.25961081	     30.03132671	     -1.76747788	     -9.27398976	    -65.86429545	      1.75937049	    -15.60685917	      0.00000000	     30.77900591	     -0.24464689	      0.20195262	    -23.85516987	     -2.61204657	    -28.68071161	      0.00000000	      8.29790314	     -8.60275782	     -2.64528607	      0.00000000	      0.00000000	      0.00000000	      0.00000000	      0.00000000	      0.00000000	      0.00000000	      0.00000000
      4.41000000	    -15.11185386	     -3.83011451	      5.56463131	      0.96642576	      0.88192978	      0.25788588	     31.82821228	     -2.67673268	    -10.99244257	    -66.46840126	      2.86316477	    -13.86790482	      0.00000000	     29.79176918	     -0.09373051	      0.74074160	    -22.99030304	     -2.15259871	    -28.17165104	      0.00000000	      8.14730286	     -8.48386322	     -4.21359367	      0.00000000	      0.00000000	      0.00000000	      0.00000000	      0.00000000	      0.00000000	      0.00000000	      0.00000000
      4.42000000	    -14.86208567	     -3.58629048	      6.11610591	      0.97646903	      0.88358538	      0.25704857	     33.43183025	     -3.70884649	    -11.81082547	    -67.16101047	      2.23548705	    -12.99003395	      0.00000000	     28.09383289	      0.21445222	      0.70631014	    -21.65564078	     -1.94149412	    -27.79913329	      0.00000000	      7.67936767	     -8.77946068	     -4.99935428	      0.00000000	      0.00000000	      0.00000000	      0.00000000	      0.00000000	      0.00000000	      0.00000000	      0.00000000
